<svg width="617" height="581" viewBox="0 0 617 581" fill="none" xmlns="http://www.w3.org/2000/svg">
<path d="M216.692 74.2911C283.235 70.9259 297.475 169.566 357.614 202.802C434.155 245.102 528.782 184.043 567.226 266.434C624.718 389.647 477.823 495.529 353.889 520.913C246.166 542.976 144.397 518.495 85.1158 416.717C35.171 330.968 31.8265 242.093 84.5476 162.154C119.537 109.101 155.138 77.404 216.692 74.2911Z" fill="black" stroke="black" stroke-width="15"/>
<path d="M205 124L229.249 161.5H180.751L205 124Z" fill="#948BF5"/>
<path d="M504 272L528.249 313.25H479.751L504 272Z" fill="#948BF5"/>
<path d="M406 309L430.249 350.25H381.751L406 309Z" fill="#948BF5"/>
<path d="M354 226L378.249 267.25H329.751L354 226Z" fill="#948BF5"/>
<path d="M434 245L458.249 286.25H409.751L434 245Z" fill="#948BF5"/>
<path d="M294 174L318.249 215.25H269.751L294 174Z" fill="#948BF5"/>
<path d="M427 440L451.249 481.25H402.751L427 440Z" fill="#948BF5"/>
<path d="M201 447L225.249 488.25H176.751L201 447Z" fill="#948BF5"/>
<path d="M125 124L149.249 165.25H100.751L125 124Z" fill="#948BF5"/>
<path d="M233 209L257.249 250.25H208.751L233 209Z" fill="#948BF5"/>
<path d="M125 199L149.249 240.25H100.751L125 199Z" fill="#948BF5"/>
<path d="M138 289L162.249 330.25H113.751L138 289Z" fill="#948BF5"/>
<path d="M282 300L306.249 341.25H257.751L282 300Z" fill="#948BF5"/>
<path d="M354 391L378.249 432.25H329.751L354 391Z" fill="#948BF5"/>
<path d="M233 377L257.249 418.25H208.751L233 377Z" fill="#948BF5"/>
<path d="M153 377L177.249 418.25H128.751L153 377Z" fill="#948BF5"/>
<path d="M289 447L313.249 488.25H264.751L289 447Z" fill="#948BF5"/>
<path d="M476 364L500.249 405.25H451.751L476 364Z" fill="#948BF5"/>
</svg>
