<svg width="334" height="209" viewBox="0 0 334 209" fill="none" xmlns="http://www.w3.org/2000/svg">
<g clip-path="url(#clip0_1_416)">
<path d="M106.57 228.703C105.945 228.703 105.304 228.658 104.671 228.55C97.4762 227.408 92.4935 220.118 93.5377 212.253C98.9891 171.102 128.491 134.957 165.27 124.368C178.902 120.44 190.948 120.836 201.078 125.528C207.286 128.404 212.302 132.71 215.969 136.144C232.553 151.641 245.224 171.695 252.608 194.131C255.066 201.601 251.522 209.844 244.681 212.532C237.84 215.219 230.309 211.345 227.85 203.866C222.012 186.122 211.989 170.257 198.874 158.005C196.638 155.919 193.703 153.349 190.808 152.009C186.171 149.861 179.831 149.915 171.963 152.18C145.092 159.92 123.549 186.311 119.561 216.379C118.616 223.543 112.992 228.703 106.562 228.703H106.57Z" fill="#376ADA"/>
<path d="M58.6255 221.053C51.6447 221.053 45.8315 215.058 45.4944 207.354C44.0719 174.787 61.5938 146.068 77.0107 124.683C89.7965 106.948 105.707 87.0913 126.731 74.2821C151.349 59.2886 181.032 55.4144 208.19 63.6752C235.341 71.9271 258.939 91.9993 272.942 118.741C281.978 136 286.517 154.688 290.907 172.765C293.045 181.574 295.068 189.898 297.576 198.033C299.895 205.565 296.186 213.718 289.304 216.253C282.422 218.788 274.956 214.743 272.637 207.21C269.858 198.194 267.63 189.017 265.476 180.154C261.34 163.12 257.426 147.029 250.1 133.034C239.518 112.818 221.667 97.6353 201.136 91.397C180.604 85.1587 158.157 88.0801 139.542 99.4241C122.563 109.77 108.848 127.011 97.6736 142.508C84.304 161.043 70.77 183.084 71.7731 205.997C72.1184 213.934 66.519 220.667 59.2586 221.053C59.0449 221.062 58.8311 221.071 58.6173 221.071L58.6255 221.053Z" fill="#0BB677"/>
<path d="M13.9128 224.181C13.4113 224.181 12.9015 224.145 12.3835 224.082C5.16423 223.174 -0.00763816 216.037 0.822821 208.145C5.08201 167.848 17.4238 128.89 36.5079 95.4778C56.9569 59.684 84.4937 31.7644 116.15 14.7304C130.876 6.81117 144.501 2.21783 157.821 0.698703C185.612 -2.47439 211.891 7.71006 235.07 16.699C247.749 21.6159 262.113 27.1801 273.912 38.4971C282.497 46.7309 288.606 57.0772 293.44 66.1021C316.628 109.384 330.31 158.724 332.998 208.792C333.426 216.72 327.892 223.525 320.64 223.992C313.388 224.46 307.164 218.41 306.736 210.482C304.286 164.917 291.837 120.027 270.739 80.6461C266.775 73.2483 262.311 65.6346 256.563 60.1244C248.563 52.4569 237.232 48.0613 226.272 43.8185C205.716 35.8544 182.422 26.8205 160.542 29.3194C150.371 30.479 139.641 34.1555 127.752 40.5556C100.503 55.2165 76.666 79.4866 58.807 110.732C41.7784 140.548 30.7605 175.38 26.9453 211.462C26.1724 218.788 20.4825 224.199 13.8964 224.199L13.9128 224.181Z" fill="#EFD55A"/>
<path d="M13.9129 224.181C13.4113 224.181 12.9015 224.145 12.3835 224.082C5.16429 223.174 -0.00757712 216.037 0.822882 208.145C5.08207 167.848 17.4238 128.89 36.508 95.4778C56.957 59.684 84.4937 31.7644 116.15 14.7304C130.876 6.81117 144.501 2.21783 157.821 0.698703C185.612 -2.47438 211.891 7.71006 235.07 16.699C247.749 21.6159 262.113 27.18 273.912 38.4971C282.497 46.7309 288.606 57.0772 293.441 66.1021C316.628 109.384 330.31 158.724 332.998 208.792C333.426 216.72 327.892 223.525 320.64 223.992C313.388 224.46 307.164 218.41 306.736 210.482C304.286 164.917 291.837 120.027 270.739 80.6461C266.775 73.2482 262.311 65.6346 256.563 60.1244C248.563 52.4569 237.232 48.0613 226.272 43.8185C205.716 35.8544 182.422 26.8205 160.542 29.3194C150.371 30.479 139.641 34.1554 127.752 40.5556C100.503 55.2165 76.666 79.4866 58.807 110.732C41.7785 140.548 30.7605 175.38 26.9454 211.462C26.1724 218.788 20.4826 224.199 13.8965 224.199L13.9129 224.181Z" fill="#F45727"/>
</g>
<defs>
<clipPath id="clip0_1_416">
<rect width="332.291" height="228.597" fill="white" transform="translate(0.740051 0.105591)"/>
</clipPath>
</defs>
</svg>
