<svg width="659" height="623" viewBox="0 0 659 623" fill="none" xmlns="http://www.w3.org/2000/svg">
<path d="M105.432 204.041C104.999 209.481 105.082 214.944 105.494 220.377C106.492 233.795 108.558 247.264 112.175 260.2C115.763 273.029 120.814 285.384 125.984 297.626C134.045 316.714 143.644 335.226 153.989 353.145C176.214 391.679 261.878 503.447 274.637 516.045C302.505 543.568 340.496 560.783 380.099 559.774C415.039 558.89 449.157 545.677 478.327 526.681C487.036 521.007 495.3 514.71 503.53 508.376C509.751 503.589 515.887 498.57 521.042 492.619C530.522 481.683 537.941 470.416 542.001 456.35C545.911 442.765 545.379 430.22 543.372 416.585C541.774 405.729 537.417 395.182 532.526 385.498C527.489 375.528 520.523 366.458 513.381 357.98C502.872 345.51 490.56 334.706 480.214 322.111C477.608 318.228 475.274 314.191 473.255 309.988C471.722 305.481 470.509 300.866 469.626 296.185C469.248 291.009 469.261 285.821 469.671 280.643C470.566 276.147 471.761 271.733 473.291 267.403C474.503 264.956 475.763 262.519 477.052 260.098C480.771 253.116 484.047 245.953 486.885 238.535C491.307 226.947 491.973 214.544 490.408 202.426C488.939 191.06 485.511 180.171 479.538 170.302C474.365 161.772 467.868 153.411 460.101 147.06C455.169 143.024 450.196 138.836 444.677 135.594C438.842 132.171 432.309 129.606 426.065 127.209C415.311 123.085 403.127 121.722 391.73 121.216C380.213 120.695 368.633 122.406 357.302 124.224C348.494 125.633 339.818 127.795 331.245 130.255C314.094 135.152 297.158 141.07 279.58 144.203C273.448 144.779 267.309 144.893 261.179 144.483C250.484 142.57 240.111 139.307 230.024 135.295C226.832 133.854 223.647 132.399 220.43 130.999C212.552 127.567 204.551 123.68 195.964 122.362C184.704 120.636 174.339 119.957 163.141 123.224C153.944 125.909 146.537 129.993 139.064 135.648C131.307 141.542 125.969 147.461 120.185 155.61C118.844 157.489 117.688 159.492 116.676 161.561C114.102 166.843 111.684 172.362 109.857 177.966C107.144 186.278 106.14 195.431 105.445 204.049L105.432 204.041Z" fill="#376ADA"/>
<mask id="mask0_1_393" style="mask-type:alpha" maskUnits="userSpaceOnUse" x="105" y="120" width="440" height="440">
<path d="M105.432 204.041C104.999 209.481 105.082 214.944 105.494 220.377C106.492 233.795 108.558 247.264 112.175 260.2C115.763 273.029 120.814 285.384 125.984 297.626C134.045 316.714 143.644 335.226 153.989 353.145C176.214 391.679 261.878 503.447 274.637 516.045C302.505 543.568 340.496 560.783 380.099 559.774C415.039 558.89 449.157 545.677 478.327 526.681C487.036 521.007 495.3 514.71 503.53 508.376C509.751 503.589 515.887 498.57 521.042 492.619C530.522 481.683 537.941 470.416 542.001 456.35C545.911 442.765 545.379 430.22 543.372 416.585C541.774 405.729 537.417 395.182 532.526 385.498C527.489 375.528 520.523 366.458 513.381 357.98C502.872 345.51 490.56 334.706 480.214 322.111C477.608 318.228 475.274 314.191 473.255 309.988C471.722 305.481 470.509 300.866 469.626 296.185C469.248 291.009 469.261 285.821 469.671 280.643C470.566 276.147 471.761 271.733 473.291 267.403C474.503 264.956 475.763 262.519 477.052 260.098C480.771 253.116 484.047 245.953 486.885 238.535C491.307 226.947 491.973 214.544 490.408 202.426C488.939 191.06 485.511 180.171 479.538 170.302C474.365 161.772 467.868 153.411 460.101 147.06C455.169 143.024 450.196 138.836 444.677 135.594C438.842 132.171 432.309 129.606 426.065 127.209C415.311 123.085 403.127 121.722 391.73 121.216C380.213 120.695 368.633 122.406 357.302 124.224C348.494 125.633 339.818 127.795 331.245 130.255C314.094 135.152 297.158 141.07 279.58 144.203C273.448 144.779 267.309 144.893 261.179 144.483C250.484 142.57 240.111 139.307 230.024 135.295C226.832 133.854 223.647 132.399 220.43 130.999C212.552 127.567 204.551 123.68 195.964 122.362C184.704 120.636 174.339 119.957 163.141 123.224C153.944 125.909 146.537 129.993 139.064 135.648C131.307 141.542 125.969 147.461 120.185 155.61C118.844 157.489 117.688 159.492 116.676 161.561C114.102 166.843 111.684 172.362 109.857 177.966C107.144 186.278 106.14 195.431 105.445 204.049L105.432 204.041Z" fill="#376ADA"/>
</mask>
<g mask="url(#mask0_1_393)">
<path d="M384.005 336.489C384.068 330.021 374.203 329.999 374.141 336.489C374.016 348.327 365.851 359.616 354.535 362.723C343.572 365.746 331.138 360.609 325.086 350.885C321.687 345.431 313.149 350.483 316.568 355.959C325.003 369.488 341.852 376.633 357.167 372.405C372.711 368.135 383.84 352.724 384.005 336.468L384.005 336.489Z" fill="white"/>
<path d="M294.103 397.688C293.958 397.878 293.813 398.047 293.689 398.258C293.44 398.681 293.233 399.125 293.046 399.59C291.907 401.218 291.078 403.057 290.642 405.044C290.352 406.355 290.456 407.729 291.14 408.913C291.741 409.948 292.922 410.942 294.083 411.217C294.912 411.407 295.782 411.428 296.611 411.217C298.414 412.422 300.59 413.056 302.745 412.844C304.548 412.675 306.289 412.253 307.802 411.174C309.626 409.885 311.242 408.046 311.74 405.784C312.61 401.704 310.662 397.983 307.346 395.743C305.999 394.834 304.445 394.348 302.87 394.242C302.248 394.094 301.606 393.988 301.005 393.967C300.113 393.925 299.16 394.073 298.331 394.39C297.626 394.665 297.005 395.024 296.404 395.404C295.595 395.827 294.891 396.44 294.414 397.222C294.331 397.328 294.248 397.455 294.165 397.561C294.145 397.582 294.124 397.624 294.103 397.645L294.103 397.688Z" fill="white"/>
<path d="M397.186 429.291C394.761 421.66 390.451 413.796 382.948 410.435C372.047 405.551 362.017 412.844 354.183 420.032C349.458 424.365 356.442 431.468 361.167 427.156C367.343 421.512 376.296 414.62 383.156 423.012C388.813 429.904 388.565 439.395 392.171 447.238C394.14 451.529 397.393 454.912 401.787 456.561C407.092 458.527 412.564 456.687 417.973 457.448C427.216 458.738 434.345 467.447 431.609 477.023C429.827 483.26 439.36 485.923 441.122 479.708C443.754 470.491 440.728 460.197 433.516 453.982C429.993 450.937 425.703 448.76 421.143 447.872C416.356 446.921 411.714 447.999 406.927 447.492C399.134 446.667 399.031 435.168 397.165 429.333L397.186 429.291Z" fill="white"/>
<path d="M419.879 347.291C415.506 357.607 414.988 369.276 417.682 380.121C424.376 407.073 450.22 422.716 475.006 429.185C481.161 430.792 483.793 421.089 477.638 419.482C460.603 415.043 443.173 406.524 433.164 391.134C424.584 377.922 422.781 359.087 432.024 345.706C437.163 338.265 446.448 333.297 454.945 331.12C459.276 330.021 463.877 329.725 468.167 331.225C472.353 332.684 475.607 336.024 478.052 339.681C483.648 348.095 488 358.368 489.326 368.473C489.948 373.124 490.487 378.049 485.99 380.586C482.28 382.7 477.97 383.545 473.742 383.461C464.83 383.271 453.245 377.394 452.396 367.205C452.085 363.463 454.199 358.855 458.012 357.882C460.996 357.121 464.768 360.102 463.898 363.336C462.24 369.593 471.752 372.278 473.41 366.021C476.747 353.358 462.136 343.465 451.505 349.849C439.982 356.762 440.707 372.194 448.375 381.685C456.292 391.494 469.742 395.214 481.7 392.783C487.482 391.599 494.072 388.746 497.243 383.397C500.746 377.521 499.606 369.572 498.362 363.188C497.036 356.339 494.466 349.765 491.461 343.529C488.767 337.948 485.617 332.282 481.161 327.949C471.276 318.373 457.349 318.753 445.412 323.806C434.407 328.456 424.708 335.94 419.859 347.313L419.879 347.291Z" fill="white"/>
<path d="M429.475 260.62C429.475 260.62 429.392 260.62 429.371 260.641C429.412 260.641 429.454 260.641 429.495 260.62L429.475 260.62Z" fill="white"/>
<path d="M429.661 250.494C419.61 251.319 412.854 260.705 414.553 270.725C414.615 271.105 414.76 271.465 414.947 271.803C415.258 279.35 420.605 285.86 427.361 288.651C434.179 291.462 442.137 289.37 446.779 283.577C451.38 277.828 452.935 270.048 449.93 263.157C446.697 255.695 437.723 249.839 429.661 250.516L429.661 250.494ZM426.615 276.052C426.905 276.39 426.78 276.263 426.615 276.052V276.052ZM439.422 276.919C439.422 276.919 439.567 276.728 439.63 276.644C439.547 276.771 439.464 276.897 439.422 276.919ZM441.619 269.414C441.578 269.224 441.536 268.991 441.557 269.012C441.598 269.012 441.619 269.224 441.619 269.414ZM433.993 261.17C434.117 261.212 434.407 261.339 434.531 261.381C434.822 261.529 435.112 261.656 435.381 261.804C437.723 263.072 439.547 264.721 440.79 266.962C440.914 267.173 440.997 267.427 441.122 267.638C441.122 267.638 441.122 267.638 441.122 267.66C441.267 268.209 441.412 268.759 441.557 269.308C441.557 269.372 441.578 269.414 441.598 269.456C441.598 269.625 441.598 269.773 441.598 269.837C441.619 270.471 441.598 271.084 441.557 271.718C441.495 271.951 441.474 272.205 441.412 272.437C441.288 272.944 441.163 273.452 440.997 273.938C440.956 274.065 440.914 274.234 440.873 274.382C440.852 274.424 440.832 274.445 440.79 274.509C440.459 275.122 440.168 275.735 439.775 276.327C439.775 276.327 439.692 276.454 439.63 276.58C439.526 276.707 439.422 276.834 439.319 276.961C438.987 277.341 438.635 277.722 438.262 278.06C438.179 278.145 438.055 278.271 437.93 278.377C437.889 278.377 437.868 278.398 437.806 278.441C437.619 278.546 437.039 279.011 436.562 279.286C436.562 279.286 436.479 279.286 436.293 279.35C435.961 279.455 435.65 279.561 435.319 279.667C435.091 279.73 434.863 279.772 434.635 279.836C434.075 279.836 433.516 279.836 432.956 279.836C432.894 279.836 432.894 279.836 432.853 279.836C432.832 279.836 432.832 279.836 432.791 279.836C432.438 279.751 432.065 279.688 431.713 279.582C431.464 279.519 431.236 279.434 431.008 279.35C430.884 279.307 430.739 279.244 430.614 279.202C430.013 278.863 429.412 278.567 428.832 278.166C428.625 278.018 428.418 277.87 428.21 277.722C429.205 278.441 428.107 277.595 427.9 277.405C427.423 276.961 427.008 276.475 426.573 275.988C426.532 275.925 426.47 275.862 426.449 275.819C426.2 275.46 425.972 275.079 425.744 274.678C425.62 274.466 425.516 274.234 425.392 274.001C425.371 273.938 425.35 273.938 425.33 273.896C425.33 273.853 425.33 273.853 425.309 273.811C425.185 273.367 424.853 272.67 424.77 272.078C424.77 272.014 424.791 271.93 424.791 271.824C424.791 271.317 424.77 270.809 424.791 270.281C424.832 269.351 424.542 268.442 424.045 267.66C424.045 267.448 424.045 267.216 424.045 267.004C424.045 266.983 424.066 266.687 424.086 266.476C424.128 266.264 424.169 266.032 424.169 266.011C424.231 265.757 424.625 264.721 424.625 264.637C424.874 264.172 425.123 263.728 425.371 263.263C425.413 263.178 425.433 263.157 425.454 263.115C425.475 263.093 425.496 263.072 425.537 263.03C425.724 262.84 425.869 262.628 426.055 262.459C426.283 262.227 426.532 262.015 426.76 261.783C426.78 261.783 426.78 261.783 426.822 261.741C427.05 261.593 427.257 261.445 427.464 261.318C427.464 261.318 427.609 261.233 427.755 261.149C427.9 261.106 428.438 260.874 428.459 260.853C428.749 260.768 429.06 260.705 429.35 260.62C429.122 260.684 429.267 260.62 429.454 260.599C429.537 260.599 429.62 260.557 429.682 260.536C429.578 260.557 429.516 260.578 429.454 260.599C429.578 260.578 429.723 260.536 429.827 260.536C430.179 260.514 430.532 260.493 430.884 260.514C431.174 260.514 431.443 260.557 431.734 260.557C431.816 260.557 431.837 260.557 431.879 260.557C431.941 260.557 431.982 260.599 432.086 260.62C432.708 260.81 433.329 260.937 433.951 261.149L433.993 261.17Z" fill="white"/>
<path d="M297.398 304.4C293.005 303.892 288.943 305.224 285.316 307.676C283.596 300.764 289.171 293.534 294.393 289.814C300.859 285.205 308.652 282.964 316.506 283.091C320.133 283.155 324.029 283.704 327.697 284.888C327.117 286.6 326.723 288.461 326.62 290.427C326.309 295.944 328.796 301.567 333.376 304.611C338.826 308.205 345.665 306.471 348.712 300.637C352.65 293.09 348.857 286.685 343.033 282.055C345.893 281.041 349.271 280.977 352.256 281.759C361.706 284.275 368.048 292.9 373.83 300.32C375.488 302.455 379.073 302.096 380.814 300.32C382.886 298.206 382.472 295.331 380.814 293.196C372.835 282.922 363.82 272.733 350.287 271.232C343.904 270.513 337.769 272.5 333.334 276.411C331.925 275.819 330.557 275.333 329.293 274.974C317.729 271.528 304.984 272.775 294.228 278.25C284.114 283.387 274.457 294.105 275.203 306.366C275.389 309.558 276.301 312.454 277.752 315.012C273.503 320.444 270.333 326.998 268.571 332.325C264.115 345.812 266.478 361.37 276.384 371.707C280.84 376.358 287.803 369.234 283.368 364.583C271.99 352.703 275.7 334.523 284.84 322.453C289.005 325.201 294.103 326.659 299.201 326.554C305.854 326.406 311.408 322.262 309.854 314.821C308.631 308.924 303.056 305.076 297.44 304.421L297.398 304.4ZM339.469 296.515C338.826 296.705 337.687 295.225 337.355 294.697C336.692 293.619 336.464 292.435 336.464 291.166C336.464 290.575 336.505 290.025 336.588 289.496C336.961 289.792 337.355 290.067 337.707 290.384C338.474 291.082 342.267 295.711 339.469 296.536L339.469 296.515ZM299.243 315.54C299.388 315.667 299.554 315.942 299.72 316.195C298.704 316.195 297.253 316.449 296.632 316.386C295.202 316.217 293.73 315.773 292.362 315.202C293.461 314.652 294.601 314.293 295.803 314.314C296.963 314.335 298.331 314.737 299.222 315.54L299.243 315.54Z" fill="white"/>
<path d="M301.999 197.879C300.279 199.633 299.906 203.29 301.999 205.003C316.341 216.693 331.179 227.749 346.536 238.022C350.515 240.686 354.39 236.31 353.789 232.336C352.898 226.522 352.836 220.603 353.541 214.769C354.846 215.889 356.152 217.454 356.836 218.088C359.53 220.646 362.245 223.204 364.939 225.761C370.203 230.75 375.446 235.718 380.71 240.707C385.353 245.104 392.357 238.001 387.694 233.583C382.43 228.594 377.187 223.626 371.923 218.637C369.374 216.228 366.825 213.797 364.255 211.387C361.81 209.082 359.385 206.356 356.421 204.728C353.748 203.248 350.391 202.677 347.572 204.094C344.173 205.806 344.194 209.991 343.759 213.416C343.324 216.841 343.199 220.244 343.261 223.647C331.531 215.488 320.071 206.905 308.963 197.858C306.89 196.166 304.01 195.786 301.979 197.858L301.999 197.879Z" fill="white"/>
<path d="M264.24 256.413C264.758 256.244 265.193 256.012 265.587 255.737C266.602 256.223 267.783 256.392 269.006 256.117C270.125 255.885 271.244 255.674 272.363 255.483C272.612 255.441 272.882 255.399 273.13 255.356C273.13 255.356 273.151 255.356 273.172 255.356C273.814 255.272 274.436 255.208 275.078 255.145C277.42 254.934 279.762 254.849 282.104 254.891C286 254.976 288.052 250.6 286.373 247.324C286.124 246.837 285.793 246.288 285.606 245.738C285.606 245.675 285.565 245.632 285.544 245.548C285.441 245.252 285.316 244.956 285.233 244.639C284.84 243.434 284.508 242.187 284.301 240.918C284.301 240.876 284.239 240.474 284.197 240.284C284.197 240.178 284.176 240.073 284.156 239.967C284.114 239.396 284.073 238.825 284.052 238.234C284.052 237.599 284.052 236.944 284.073 236.31C284.073 235.993 284.114 235.676 284.135 235.359C284.156 235.063 284.321 233.858 284.135 235.168C284.363 233.498 284.301 232.145 283.244 230.771C282.353 229.609 280.881 228.658 279.368 228.784C272.964 229.313 266.581 229.862 260.178 230.391C256.758 230.666 254.851 233.372 255.411 236.754C256.323 242.123 257.214 247.471 258.126 252.841C258.561 255.441 261.836 257.132 264.198 256.35L264.24 256.413Z" fill="white"/>
<path d="M488.435 264.531C483.399 271.951 479.545 280.174 476.933 288.799C475.918 292.16 478.633 294.887 481.7 295.162C483.544 295.331 485.389 295.521 487.233 295.754C487.731 295.817 488.249 295.881 488.746 295.944C488.933 295.965 489.057 295.986 489.14 295.986C489.223 295.986 489.306 296.007 489.43 296.029C490.342 296.155 491.275 296.303 492.186 296.451C495.938 297.043 499.668 297.762 503.378 298.586C504.932 298.925 506.631 298.544 507.875 297.572C508.227 297.466 508.579 297.318 508.911 297.085C511.129 295.627 512.103 292.604 510.673 290.194C505.74 281.823 501.16 273.261 496.953 264.51C496.207 262.945 494.342 262.015 492.684 262.015C490.839 262.015 489.43 263.009 488.415 264.51L488.435 264.531Z" fill="white"/>
<path d="M404.999 189.888C403.756 192.805 402.554 196.779 399.963 198.83C397.849 200.479 396.73 203.164 398.202 205.721C399.424 207.835 402.823 209.188 404.958 207.518C410.118 203.459 411.9 198.175 414.657 192.404C415.61 190.395 416.874 187.647 419.071 186.802C420.729 186.146 421.869 186.421 422.035 188.281C422.532 194.306 419.05 199.739 418.822 205.679C418.553 212 423.506 217.707 430.055 215.741C433.039 214.854 435.277 212.507 437.371 210.287C439.63 207.878 442.116 205.912 445.039 204.432C446.614 203.629 449.225 202.233 451.049 202.783C451.09 202.783 451.774 202.783 451.815 202.889C451.961 203.248 450.655 205.404 450.385 205.975C447.526 212.211 446.178 219.8 451.297 225.296C455.649 229.968 462.136 229.799 466.82 225.825C468.996 223.986 472.498 216.967 475.794 218.405C478.653 219.652 478.944 223.563 478.612 226.226C478.405 228.002 477.887 229.736 477.41 231.427C477.203 232.146 476.643 235.168 476.063 235.633C473.949 237.282 472.83 239.967 474.301 242.525C475.524 244.639 478.923 245.992 481.057 244.322C486.508 240.052 488.725 230.814 488.601 224.028C488.456 216.883 484.125 209.569 476.809 208.237C470.239 207.032 466.115 211.662 462.24 216.228C461.411 217.2 460.043 219.335 458.717 218.638C456.25 217.348 458.178 212.655 458.903 211.027C460.458 207.497 462.281 204.115 461.224 200.119C460.375 196.822 457.95 194.454 454.841 193.355C448.707 191.199 441.681 194.285 436.625 197.773C433.702 199.802 431.464 202.276 428.915 204.707C428.998 204.094 429.081 203.544 429.122 203.438C430.842 196.801 433.993 188.387 430.262 181.855C426.221 174.752 416.48 175.26 411.051 180.291C408.232 182.891 406.512 186.358 405.02 189.867L404.999 189.888Z" fill="white"/>
<path d="M377.332 167.523C376.234 166.381 374.866 165.578 373.374 165.092C372.939 164.944 372.483 164.859 372.006 164.796C372.006 164.796 372.006 164.796 371.985 164.796C371.26 164.669 370.493 164.521 369.747 164.563C368.276 164.669 366.784 164.986 365.54 165.853C363.488 167.248 361.83 169.404 361.395 171.941C361.146 173.357 361.084 174.477 361.271 175.873C361.457 177.268 361.81 178.325 362.39 179.635C362.825 180.608 363.509 181.517 364.234 182.257C365.146 183.208 366.224 183.906 367.405 184.413C369.789 185.449 372.483 185.618 374.97 184.815C377.229 184.096 379.467 182.743 380.98 180.84C381.456 180.248 381.933 179.635 382.327 178.98C382.741 178.282 383.031 177.479 383.322 176.739C383.777 175.619 383.404 173.864 382.824 172.871C382.223 171.835 381.042 170.841 379.881 170.567C379.674 170.524 379.446 170.482 379.218 170.461C378.741 169.362 378.099 168.326 377.332 167.523Z" fill="white"/>
<path d="M268.716 201.557C272.156 206.969 280.715 201.937 277.234 196.483C272.778 189.486 270.001 177.775 275.99 170.736C281.233 164.563 291.326 167.036 297.564 169.975C306.434 174.139 315.18 180.777 325.293 181.179C329.728 181.348 334.35 179.614 336.65 175.513C339.117 171.074 338.35 165.261 337.707 160.441C336.174 148.962 331.407 138.435 324.216 129.514C320.175 124.504 313.232 131.67 317.232 136.638C323.034 143.846 326.868 152.873 328.05 162.132C328.34 164.373 328.734 167.015 328.381 169.256C328.112 171.032 327.366 171.159 325.708 171.137C321.397 171.074 317.004 168.812 313.232 166.888C304.859 162.576 296.943 157.714 287.368 157.037C278.332 156.382 269.296 160.441 265.4 169.15C260.758 179.551 262.706 192.213 268.695 201.599L268.716 201.557Z" fill="white"/>
<path d="M349.997 477.214C349.064 466.771 343.116 456.772 337.065 448.506C331.096 440.368 323.18 433.392 313.025 431.828C303.74 430.39 293.938 433.709 289.337 442.524C285.316 450.24 285.896 460.408 293.067 465.989C297.792 469.667 304.072 469.709 308.9 466.179C313.999 462.437 316.03 456.497 317.563 450.536C319.18 444.257 309.647 441.594 308.051 447.851C307.18 451.212 303.719 463.008 298.414 457.448C295.533 454.425 296.404 449.31 298.849 445.927C302.289 441.192 308.714 440.769 313.895 442.27C320.382 444.173 325.459 449.141 329.314 454.595C331.718 457.998 333.832 461.613 335.821 465.27C337.832 468.969 339.78 472.901 340.153 477.171C340.401 479.877 342.246 482.203 345.085 482.203C347.572 482.203 350.266 479.898 350.018 477.171L349.997 477.214Z" fill="white"/>
<path d="M239.08 365.852C234.624 355.261 231.619 343.846 230.252 332.388C230.003 330.359 229.215 328.604 227.226 327.78C225.464 327.061 223.185 327.315 221.838 328.816C213.942 337.694 205.175 345.769 195.642 352.766C193.487 354.352 192.43 357.142 193.88 359.658C194.813 361.264 196.865 362.343 198.771 362.152C199.559 363.843 201.3 364.879 203.248 365.07C213.216 366.021 223.185 368.621 232.366 372.701C237.049 374.794 241.111 370.587 239.122 365.809L239.08 365.852ZM222.066 343.085C223.185 348.792 224.656 354.394 226.459 359.912C220.49 357.967 214.398 356.55 208.16 355.641C213.009 351.688 217.651 347.503 222.066 343.085Z" fill="white"/>
<path d="M418.449 510.445C418.18 507.845 416.398 505.266 413.517 505.414C409.144 505.646 404.771 505.921 400.398 506.238C398.264 506.386 396.108 506.555 393.974 506.724C391.383 506.936 388.668 507.062 386.741 509.113C384.482 511.523 384.897 514.546 385.498 517.505C385.954 519.683 386.389 521.86 386.845 524.016C387.777 528.54 388.71 533.064 389.642 537.588C389.974 539.215 391.342 540.505 392.938 541.033C393.787 541.837 394.865 542.344 396.108 542.259C402.802 541.773 409.496 541.308 416.19 540.822C418.636 540.653 421.434 538.645 421.123 535.791C420.232 527.335 419.361 518.9 418.47 510.445L418.449 510.445ZM396.772 523.445C396.378 521.543 395.984 519.619 395.59 517.717C395.528 517.378 395.445 517.04 395.383 516.702L396.523 516.617C398.409 516.469 400.295 516.321 402.181 516.195C404.502 516.025 406.802 515.899 409.123 515.772C409.662 520.909 410.201 526.046 410.74 531.182C406.678 531.478 402.595 531.753 398.533 532.049C397.953 529.195 397.352 526.341 396.772 523.467L396.772 523.445Z" fill="white"/>
<path d="M265.649 460.64C271.721 452.502 271.203 442.207 268.053 432.969C265.214 424.619 261.007 416.459 254.665 410.329C241.173 397.286 218.957 396.081 203.911 407.073C201.756 408.659 200.699 411.449 202.149 413.965C203.393 416.142 206.73 417.368 208.906 415.762C217.465 409.504 228.304 408.004 238.251 411.534C249.049 415.36 255.494 426.12 258.893 436.69C260.779 442.524 261.732 449.014 258.043 454.341C255.142 458.527 250.126 460.746 245.132 460.049C239.37 459.224 235.64 454.933 232.987 449.986C230.583 445.484 226.998 438.782 228.987 433.54C231.06 428.086 238.624 430.94 241.919 433.582C243.826 435.104 245.546 437.387 245.899 439.903C245.94 440.156 245.857 440.6 245.774 441.065C244.51 439.797 242.52 439.205 240.863 439.67C238.106 440.452 236.925 443.179 237.422 445.864C238.168 450.071 242.334 452.713 246.354 452.586C250.727 452.438 254.147 448.972 255.287 444.828C257.608 436.394 252.178 427.832 245.173 423.731C237.588 419.292 226.894 418.7 221.444 426.733C215.931 434.85 219.62 444.997 223.413 452.946C227.247 460.979 233.505 468.103 242.5 469.752C251.39 471.379 260.178 467.997 265.67 460.662L265.649 460.64Z" fill="white"/>
<path d="M249.96 308.966C242.852 306.366 237.775 298.967 237.754 291.293C237.754 286.347 239.205 281.464 239.681 276.559C240.137 271.845 239.888 266.899 238.148 262.459C234.728 253.75 226.397 249.353 217.734 247.894C209.196 246.457 199.497 246.203 191.704 250.621C181.86 256.223 180.078 267.723 180.223 278.208C180.327 284.677 190.192 284.698 190.088 278.208C189.984 271.021 190.233 262.206 197.673 258.802C203.973 255.906 212.491 256.667 218.998 258.464C222.148 259.331 225.361 260.726 227.454 263.389C229.92 266.497 230.148 270.704 229.961 274.53C229.526 283.091 226.459 291.145 229.153 299.665C231.992 308.606 238.686 315.519 247.328 318.69C253.318 320.888 255.888 311.164 249.96 308.987L249.96 308.966Z" fill="white"/>
<path d="M401.704 116.556C397.725 122.284 401.041 129.662 404.212 134.883C404.751 135.771 405.372 136.596 405.953 137.462C394.948 139.64 388.109 127.442 384.897 118.606C382.7 112.581 373.167 115.182 375.384 121.291C380.109 134.292 389.56 148.92 405.082 147.715C407.776 147.504 410.45 146.785 412.916 145.622C419.796 152.281 428.21 157.291 436.935 161.054C451.774 167.48 470.737 173.97 485.928 165.324C491.482 162.174 486.508 153.465 480.954 156.636C471.358 162.09 459.525 158.559 449.805 155.283C440.396 152.112 430.988 147.884 423.195 141.542C422.283 140.802 421.371 140.02 420.501 139.196C420.791 138.752 421.123 138.308 421.371 137.822C424.397 132.114 423.879 124.546 420.169 119.283C416.17 113.617 406.595 109.601 401.745 116.577L401.704 116.556ZM412.398 125.561C413.247 127.062 413.6 128.88 413.393 130.592C413.393 130.656 413.351 130.719 413.351 130.804C412.273 129.112 411.154 127.316 410.408 125.455C410.139 124.779 410.035 124.039 409.849 123.363C409.849 123.363 409.89 123.384 409.89 123.405C410.222 124.335 410.16 124.039 410.035 123.51C410.885 124.081 411.735 124.398 412.398 125.561Z" fill="white"/>
<path d="M470.592 454.869C469.618 456.941 469.286 459.161 469.535 461.338C469.307 463.262 469.576 465.08 470.405 466.855C471.11 468.399 472.312 469.519 473.617 470.513C474.322 471.062 475.11 471.443 475.918 471.76C477.244 472.753 478.716 473.535 480.332 473.937C482.757 474.529 485.078 474.296 487.337 473.218C489.016 472.415 490.57 470.914 491.482 469.265C492.601 467.236 492.974 464.784 492.311 462.543C491.958 461.317 491.109 460.26 490.052 459.583C489.845 458.484 489.513 457.406 489.016 456.349C487.648 453.347 484.912 451.001 481.804 450.071C477.451 448.781 472.602 450.642 470.592 454.891L470.592 454.869Z" fill="white"/>
<path d="M366.1 506.64C367.219 504.166 366.784 501.207 364.338 499.748C362.203 498.48 358.722 499.072 357.582 501.545C356.028 504.991 354.162 508.31 351.841 511.269C350.142 513.446 346.909 518.076 343.883 518.414C339.614 518.9 338.578 507.697 337.459 504.927C334.951 498.586 329.459 492.265 322.04 494.273C316.693 495.732 314.206 500.826 312.175 505.562C311.429 507.295 310.351 509.641 309.501 510.572C309.626 510.445 309.253 510.656 309.336 510.698C308.963 510.572 308.61 510.191 308.154 509.43C306.849 507.232 306.268 504.589 305.336 502.2C303.968 498.712 302.144 495.563 299.367 493.026C288.528 483.09 270.643 481.167 256.758 482.393C247.619 483.217 238.811 485.564 230.459 489.453C222.936 492.941 213.817 498.205 213.838 507.802C213.838 514.271 223.723 514.292 223.703 507.802C223.703 504.822 226.791 502.919 229.05 501.545C232.511 499.431 236.2 497.677 239.992 496.302C247.038 493.745 254.416 492.349 261.898 492.201C269.545 492.053 277.275 493.132 284.508 495.753C290.269 497.825 294.497 501.101 296.611 507.041C298.58 512.601 300.839 519.365 307.346 520.57C313.025 521.606 317.294 517.865 319.677 512.939C320.672 510.867 321.418 508.669 322.496 506.64C323.262 505.181 323.884 503.807 324.858 503.955C326.641 504.209 327.843 507.358 328.381 508.796C329.5 511.755 329.853 514.947 330.993 517.907C333.977 525.58 340.754 531.056 348.981 527.145C356.712 523.467 362.618 514.25 366.079 506.64L366.1 506.64Z" fill="white"/>
<path d="M218.439 217.2C223.661 217.052 228.49 218.405 233.671 219.758C235.785 220.329 238.127 219.398 239.246 217.454C240.282 215.657 240.137 212.761 238.479 211.344C237.464 210.499 236.51 209.569 235.64 208.575C235.433 208.343 235.246 208.11 235.039 207.856C234.998 207.814 234.998 207.793 234.977 207.772C234.604 207.265 234.272 206.757 233.941 206.208C233.277 205.129 232.697 203.988 232.179 202.846C232.117 202.656 231.806 201.874 231.744 201.684C231.516 201.007 231.309 200.331 231.143 199.654C230.977 199.041 230.853 198.428 230.728 197.815C230.666 197.498 230.625 197.202 230.563 196.885C230.563 196.885 230.563 196.864 230.563 196.822C230.438 195.49 230.376 194.158 230.438 192.826C230.459 192.298 230.5 191.748 230.562 191.22C230.562 191.283 230.708 190.226 230.77 189.973C231.039 188.577 231.454 187.224 231.951 185.914C232.884 183.44 230.936 180.291 228.511 179.72C225.692 179.065 223.433 180.608 222.439 183.229C219.558 190.924 220.097 199.802 223.392 207.349C221.423 207.138 219.434 207.053 217.444 207.18C211.33 207.582 205.548 209.59 200.989 213.86C199.02 215.699 199.165 219.124 200.989 220.984C202.937 222.971 206.004 222.823 207.973 220.984C210.584 218.553 214.708 217.306 218.48 217.2L218.439 217.2Z" fill="white"/>
<path d="M245.981 154.057C246.168 153.507 246.292 152.915 246.272 152.218C246.168 145.96 245.484 139.724 244.344 133.573C243.95 131.459 241.629 129.852 239.578 129.873C225.361 130.043 211.123 130.212 196.906 130.381C193.424 130.423 191.663 133.552 192.14 136.744C193.093 143.022 193.134 149.596 192.222 155.896C191.808 158.686 193.445 162.745 196.989 162.259C211.662 160.251 226.438 159.363 241.236 159.595C244.655 159.638 246.23 156.742 245.961 154.036L245.981 154.057ZM202.398 140.401C213.403 140.274 224.428 140.147 235.433 140.02C235.889 143.191 236.158 146.383 236.303 149.575C224.988 149.575 213.693 150.273 202.46 151.584C202.688 147.842 202.688 144.142 202.398 140.401Z" fill="white"/>
<path d="M268.509 130.74C270.167 130.36 271.825 130 273.503 129.725C273.98 129.641 274.436 129.578 274.913 129.514C274.975 129.514 274.995 129.514 275.016 129.514C275.078 129.514 275.12 129.514 275.203 129.514C276.011 129.43 276.819 129.324 277.627 129.26C281.006 128.964 284.404 128.901 287.803 129.049C290.394 129.176 292.86 126.639 292.735 124.018C292.735 123.891 292.694 123.785 292.694 123.658C292.694 122.834 292.508 122.01 292.031 121.27C288.031 114.717 284.011 108.163 280.011 101.589C278.021 98.3336 273.483 98.3547 271.493 101.589C267.162 108.607 264.053 116.471 262.437 124.589C261.69 128.394 264.695 131.67 268.509 130.782L268.509 130.74Z" fill="white"/>
<path d="M316.962 94.9935C311.926 96.6001 307.367 99.2214 304.507 103.872C303.077 106.176 304.03 109.411 306.268 110.763C308.631 112.18 311.595 111.271 313.025 108.967C314.413 106.705 317.211 105.436 320.133 104.549C323.553 103.513 326.786 102.477 329.708 104.844C332.816 107.36 335.676 110.637 338.246 113.723C340.671 116.64 342.619 119.875 343.572 123.532C345.189 129.789 354.701 127.125 353.085 120.847C351.655 115.33 348.629 110.637 345.023 106.345C341.749 102.456 337.977 98.101 333.666 95.4163C328.464 92.182 322.475 93.239 316.962 94.9935Z" fill="white"/>
<path d="M514.942 464.467C515.149 470.386 512.786 475.945 510.714 481.378C508.828 486.304 506.673 491.166 503.771 495.563C502.362 497.698 500.518 499.833 498.404 501.693C495.813 499.199 492.705 497.233 489.451 495.901C482.28 492.962 472.457 493.723 469.659 502.412C466.861 511.142 475.213 516.152 482.488 517.061C486.715 517.59 491.005 516.913 495.005 515.37C495.71 524.058 481.99 526.067 476.021 526.088C464.975 526.13 454.282 521.585 446.51 513.616C442.034 509.007 435.049 516.131 439.526 520.74C449.702 531.182 464.374 537.08 478.84 536.066C485.741 535.579 492.705 533.846 498.217 529.343C503.626 524.925 506.3 517.717 504.186 510.825C504.103 510.593 503.999 510.36 503.916 510.128C509.968 505.118 514.216 498.268 517.387 491.039C520.993 482.816 525.159 473.641 524.827 464.467C524.599 457.998 514.714 457.977 514.963 464.467L514.942 464.467ZM480.332 506.28C479.047 505.709 478.405 505.646 479.71 504.674C481.451 503.384 484.788 504.716 486.487 505.477C487.337 505.857 488.207 506.323 489.057 506.872C486.197 507.591 483.234 507.506 480.332 506.259L480.332 506.28Z" fill="white"/>
<path d="M531.853 189.655C533.946 188.937 535.438 190.205 536.516 192.087C537.946 194.56 537.552 197.075 536.329 199.549C533.283 205.679 526.817 208.787 522.527 213.797C517.74 219.398 515.709 227.431 521.449 233.245C523.625 235.443 526.506 236.69 529.345 237.726C531.936 238.656 535.107 239.143 537.055 241.32C537.324 241.616 537.759 241.975 537.821 242.44C537.801 242.44 537.78 242.44 537.739 242.546C537.22 243.561 535.252 244.153 534.298 244.618C531.231 246.055 528.247 247.683 525.905 250.22C521.864 254.617 520.952 261.085 524.288 266.159C526.983 270.281 531.501 272.606 535.48 275.164C537.075 276.179 538.36 276.961 539.542 278.398C540.267 279.286 540.64 279.963 539.687 281.781C538.008 284.952 534.671 287.087 532.723 290.152C530.651 293.428 529.407 297.72 530.651 301.546C532.122 306.049 536.018 307.888 540.101 309.241C544.868 310.826 549.655 312.39 554.422 313.976C560.473 315.984 563.064 306.26 557.054 304.273C552.847 302.878 548.64 301.504 544.453 300.108C543.583 299.812 540.744 299.369 540.08 298.46C539.811 298.1 540.35 296.79 540.764 296.029C542.298 293.111 545.303 290.997 547.23 288.334C549.158 285.649 550.318 282.457 550.028 279.096C549.572 273.663 545.717 270.006 541.51 267.152C538.443 265.081 533.573 262.988 532.247 260.176C532.247 260.197 531.977 259.394 532.039 259.098C532.205 258.083 532.765 257.386 533.49 256.709C535.998 254.321 539.5 253.56 542.319 251.657C548.847 247.281 549.22 238.847 543.417 233.625C541.034 231.469 538.215 230.095 535.21 229.101C533.2 228.446 528.661 227.664 527.791 225.254C527.045 223.182 529.532 220.794 530.817 219.504C533.428 216.862 536.495 214.769 539.127 212.148C544.681 206.609 549.178 198.576 546.567 190.48C544.246 183.25 536.889 177.31 529.242 179.974C523.252 182.045 525.822 191.769 531.874 189.677L531.853 189.655Z" fill="white"/>
<path d="M534.195 359.108C535.148 367.057 536.495 374.899 538.215 382.7C535.915 381.241 533.594 379.783 531.293 378.324C527.542 375.956 523.004 379.846 524.04 384.01C525.698 390.585 527.459 397.159 529.242 403.691C528.33 403.184 527.439 402.698 526.527 402.19C523.563 400.541 518.672 402.528 519.107 406.545C519.543 410.561 519.978 414.578 520.413 418.594C517.449 415.91 514.589 413.119 511.833 410.202C507.419 405.53 500.435 412.654 504.849 417.326C510.797 423.625 517.242 429.312 524.102 434.533C526.962 436.711 531.915 433.815 531.521 430.179C530.982 425.295 530.464 420.433 529.925 415.55C531.501 416.438 533.096 417.305 534.671 418.172C538.36 420.222 543.168 416.819 541.925 412.485C540.122 406.207 538.402 399.907 536.723 393.608C538.961 395.024 541.2 396.44 543.458 397.857C547.127 400.161 551.873 396.335 550.712 392.17C547.666 381.347 545.386 370.291 544.039 359.108C543.728 356.402 542.008 354.077 539.106 354.077C536.682 354.077 533.842 356.402 534.174 359.108L534.195 359.108Z" fill="white"/>
</g>
</svg>
