<svg width="90" height="92" viewBox="0 0 90 92" fill="none" xmlns="http://www.w3.org/2000/svg">
<path d="M86.012 37.0497L86.0065 37.0477L63.6832 28.8244L63.6828 28.8243L63.4758 28.748C44.5962 21.7902 24.7715 14.484 7.41409 3.28416L86.012 37.0497ZM86.012 37.0497C86.536 37.2413 86.9101 37.7301 86.9545 38.3042C86.9985 38.8726 86.7032 39.4137 86.2163 39.6814L86.2097 39.685L86.0092 39.7961C76.1427 45.2596 65.937 50.911 56.5989 57.6379L54.4551 59.1823L56.1156 61.2375C58.5361 64.2334 60.9225 67.2262 63.2805 70.1922L63.2812 70.1931L76.5491 86.8657C77.0498 87.4952 76.9496 88.3974 76.3339 88.9002L76.3261 88.9062L76.2933 88.9312C75.6627 89.4122 74.7647 89.3008 74.2719 88.6817C74.2718 88.6817 74.2718 88.6816 74.2718 88.6816L61.0037 72.0086L61.0022 72.0068C60.6153 71.5215 60.2274 71.0348 59.8386 70.5468C57.8251 68.0198 55.7866 65.4614 53.719 62.9092L52.1377 60.9572L50.1934 62.548C45.7727 66.165 41.6182 70.1196 37.8612 74.5177L37.8593 74.5199C37.0233 75.5009 36.2073 76.5029 35.4083 77.484L35.2869 77.6332L35.2864 77.6338C32.425 81.1493 29.6838 84.4989 26.2309 87.1324C25.4776 87.7069 24.6929 88.2466 23.8743 88.7406C23.4587 88.9892 22.9393 89.0139 22.5026 88.8056C22.0479 88.5853 21.7472 88.1651 21.6817 87.6888L21.6815 87.6876C17.8469 59.8905 11.7372 32.1989 3.5283 5.36806L3.5283 5.36806L3.52707 5.36406C3.28872 4.58965 3.71917 3.78291 4.48751 3.54872L4.48992 3.54798C4.61941 3.50837 4.74612 3.48908 4.8676 3.48679L5.44569 3.47591M86.012 37.0497L5.44569 3.47591M5.44569 3.47591L5.9603 3.21231M5.44569 3.47591L5.9603 3.21231M5.9603 3.21231C6.41059 2.98165 6.96483 2.99486 7.41336 3.28368L5.9603 3.21231Z" fill="#403B3B" stroke="#403B3B" stroke-width="5"/>
</svg>
