<svg width="966" height="122" viewBox="0 0 966 122" fill="none" xmlns="http://www.w3.org/2000/svg">
<path d="M857.735 38.9225C821.479 40.3883 785.005 41.2196 749.04 43.565C731.341 44.721 713.873 48.0438 697.683 51.5153C674.48 56.4897 651.849 62.0811 630.251 68.1846C611.946 73.365 594.677 79.2887 578.368 85.5084C552.825 95.2586 525.249 103.724 495.037 110.866C447.292 122.156 397.309 124.5 345.658 117.95C276.919 109.227 216.649 94.5494 165.062 74.1482C117.356 55.2914 69.6142 36.4494 21.9788 17.5632C15.5705 15.0272 9.33871 12.3741 3.88591 9.5122C-0.462167 7.21969 -1.97595 4.35474 3.89563 1.97919C9.48415 -0.292848 14.8535 1.0371 20.2949 2.49658C25.8785 3.98382 32.0627 5.13362 38.1051 6.31349C68.317 12.1984 95.7746 19.754 121.609 28.3928C153.029 38.8802 184.096 49.5729 216.683 59.4147C265.562 74.1701 318.004 86.294 379.257 90.8856C405.214 92.829 429.793 91.1256 453.458 86.1475C481.799 80.1771 509.07 73.5214 532.989 64.8109C577.783 48.5135 629.104 36.1537 682.283 25.4559C742.265 13.3871 806.204 12.2602 870.55 17.5642C890.329 19.1963 910.041 21.2628 929.155 23.8546C940.132 25.3558 950.693 27.887 959.943 30.7469C968.517 33.3955 966.515 35.9854 955.982 36.7795C942.682 37.784 929.203 38.573 915.756 38.8847C896.455 39.3307 877.114 39.2711 857.775 39.4282C857.809 39.2544 857.772 39.0957 857.735 38.9225Z" fill="black"/>
</svg>
