<svg width="447" height="472" viewBox="0 0 447 472" fill="none" xmlns="http://www.w3.org/2000/svg">
<path d="M72 281C68.4932 316.333 50.7836 387 8 387" stroke="#F0A300" stroke-width="15" stroke-linecap="round"/>
<path d="M72 464C76 435.333 96.2 378 145 378" stroke="#F0A300" stroke-width="15" stroke-linecap="round"/>
<path d="M72 280C76 312.667 96.2 378 145 378" stroke="#F0A300" stroke-width="15" stroke-linecap="round"/>
<path d="M72 464C68.4931 438.333 50.7836 387 8 387" stroke="#F0A300" stroke-width="15" stroke-linecap="round"/>
<path d="M366 135C360.356 161 331.855 213 263 213" stroke="#F0A300" stroke-width="15" stroke-linecap="round"/>
<path d="M366 318C370 292.333 390.2 241 439 241" stroke="#F0A300" stroke-width="15" stroke-linecap="round"/>
<path d="M366 134C370 169.667 390.2 241 439 241" stroke="#F0A300" stroke-width="15" stroke-linecap="round"/>
<path d="M366 318C360.356 283 331.855 213 263 213" stroke="#F0A300" stroke-width="15" stroke-linecap="round"/>
<path d="M137 9C133 20.3333 112.8 43 64 43" stroke="#F0A300" stroke-width="15" stroke-linecap="round"/>
<path d="M137 192C141 153.333 161.2 76 210 76" stroke="#F0A300" stroke-width="15" stroke-linecap="round"/>
<path d="M137 8C141 30.6667 161.2 76 210 76" stroke="#F0A300" stroke-width="15" stroke-linecap="round"/>
<path d="M137 192C133 142.333 112.8 43 64 43" stroke="#F0A300" stroke-width="15" stroke-linecap="round"/>
</svg>
