<svg width="477" height="499" viewBox="0 0 477 499" fill="none" xmlns="http://www.w3.org/2000/svg">
<path d="M104.172 193.304C106.907 195.599 109.011 197.493 111.263 199.222C170.449 244.499 229.729 289.699 288.834 335.078C301.414 344.748 313.481 354.98 325.575 365.2C335.429 373.526 338.262 381.411 334.501 388.078C330.607 395 319.903 398.194 307.762 395.418C288.41 390.986 270.602 383.014 255.13 371.571C234.785 356.56 214.923 340.873 195.709 324.622C153.709 289.111 111.857 253.497 65.1963 223.266C58.0231 218.629 50.1474 214.583 41.997 211.655C19.4873 203.537 12.6493 179.663 29.4196 163.415C35.0053 158.011 42.4418 153.731 49.849 150.58C91.2806 132.983 128.734 110.086 161.859 80.8768C168.341 75.1732 176.23 69.9128 184.5 67.1467C203.687 60.7653 220.887 75.9704 215.665 94.2906C213.797 100.851 209.882 107.113 205.867 112.882C188.14 138.218 163.244 156.623 136.874 173.469C126.41 180.085 115.668 186.323 104.172 193.304Z" fill="black"/>
<path d="M291.697 201.538C298.771 207.177 304.913 212.241 311.271 217.075C348.458 245.519 385.806 273.758 422.79 302.394C431.25 308.933 438.97 316.43 446.256 324.133C450.182 328.28 453.138 333.527 455.248 338.731C458.253 346.12 455.173 354.087 448.795 357.925C441.617 362.241 434.577 361.331 427.937 356.791C425.508 355.115 423.267 353.158 421.027 351.265C405.841 338.475 390.506 325.852 375.577 312.844C335.435 277.911 292.321 246.721 245.06 220.503C225.836 209.831 222.996 193.222 236.848 176.773C249.853 161.334 266.852 150.167 284.335 139.694C294.587 133.562 305.032 127.719 315.575 122.054C319.586 119.886 324.008 117.967 328.508 116.999C339.371 114.652 348.949 117.313 355.915 125.679C362.867 134.02 363.783 143.648 358.014 152.451C354.284 158.179 348.531 163.153 342.672 167.19C329.129 176.548 314.951 185.127 301.131 194.107C298.059 196.178 295.36 198.676 291.697 201.538Z" fill="black"/>
</svg>
