<svg width="300" height="425" viewBox="0 0 300 425" fill="none" xmlns="http://www.w3.org/2000/svg">
<path d="M162.264 7.79489C162.956 27.6939 157.982 49.2392 146.536 64.9956C146.204 65.4216 146.022 65.9637 146.022 66.5242C146.022 67.0847 146.204 67.6268 146.536 68.0528C146.844 68.3872 147.251 68.5893 147.683 68.6225C148.115 68.6557 148.544 68.5178 148.891 68.2337C163.137 58.8993 170.631 42.9077 168.259 27.7482C189.373 162.429 113.35 124.801 30.9365 133.195C15.6199 133.882 -5.44459 145.551 1.29144 166.065C19.4079 213.641 246.012 176.647 239.77 212.574C236.608 230.755 123.808 227.426 53.9445 231.967C34.1811 233.233 26.8521 253.385 37.9361 268.328C47.4554 279.742 62.0639 280.213 74.696 282.8C105.181 290.56 228.06 289.24 273.977 303.838C292.67 309.79 285.259 321.802 273.302 322.29C210.619 324.913 107.223 321.567 51.1776 325.094C32.9624 324.859 18.2386 332.131 15.9658 341.375C6.18295 382.602 209.038 371.423 157.604 420.863C157.279 421.171 157.076 421.606 157.039 422.076C157.003 422.546 157.134 423.013 157.406 423.377C157.905 424.021 158.613 424.425 159.379 424.502C160.145 424.58 160.909 424.326 161.507 423.793C224.486 367.244 21.022 366.394 26.7698 345.5C29.1579 336.798 85.1212 335.767 123.182 336.31C151.51 336.708 258.347 339.765 277.633 336.129C312.302 329.617 301.481 298.14 280.104 289.692C228.636 269.503 100.372 277.174 62.1298 260.549C52.4128 256.334 58.4901 252.933 62.6239 252.228C99.9932 245.914 215.79 254.796 245.534 238.28C254.592 233.233 262.465 223.808 262.004 211.67C256.338 171.094 191.498 177.063 163.664 173.301C151.477 171.492 56.6125 173.699 27.5603 164.563C20.8408 162.465 14.78 153.981 27.3462 152.316C117.648 140.25 203.57 177.28 174.205 36.3048C183.625 49.7276 192.107 57.8862 212.216 63.9825C212.436 64.0405 212.665 64.0481 212.888 64.0047C213.111 63.9614 213.323 63.868 213.512 63.7305C213.7 63.593 213.861 63.4144 213.984 63.2056C214.106 62.9969 214.189 62.7625 214.226 62.5173C214.297 62.19 214.284 61.8474 214.188 61.5278C214.092 61.2083 213.917 60.9244 213.682 60.7083C189.983 43.7398 180.084 29.7019 173.184 6.43814C170.252 -3.18576 162.017 -1.43103 162.264 7.79489Z" fill="#71D392"/>
</svg>
