<svg width="181" height="240" viewBox="0 0 181 240" fill="none" xmlns="http://www.w3.org/2000/svg">
<path d="M157.566 131.542C148.47 143.528 134.158 152.774 120.304 161.697C117.859 163.265 115.475 164.822 113.134 166.347C112.461 166.793 111.956 167.421 111.674 168.122C111.182 168.537 110.771 169.061 110.536 169.711C109.766 171.707 110.758 173.949 112.753 174.718C113.011 174.816 113.804 175.131 113.907 176.789C114.038 178.901 112.811 181.337 111.194 182.208C107.198 184.344 101.847 183.147 96.236 181.598L74.9135 175.746C69.3027 174.197 63.1379 172.173 61.18 167.654C60.409 165.895 61.6925 163.213 63.3228 161.992C63.9826 161.505 64.3879 161.41 64.6746 161.453C64.8848 161.484 65.0233 161.603 65.1102 161.675C66.6012 162.936 68.7965 162.895 70.2472 161.569C71.6788 160.239 71.9117 158.045 70.7621 156.464C55.9162 135.903 54.75 107.703 55.4078 85.4299C55.8681 69.6586 57.1824 53.0186 63.6867 38.2556C70.5836 22.5738 82.8874 11.481 96.58 8.55667C108.92 5.91756 123.407 9.9185 135.31 19.2603C144.942 26.8128 153.078 37.2886 161.684 53.213C166.255 61.6654 171.105 71.7636 172.561 82.6019C174.665 98.3488 169.203 116.183 157.569 131.522L157.566 131.542Z" fill="#F45727"/>
<path d="M148.739 58.4402C147.112 57.0414 144.681 57.2227 143.283 58.8503C141.884 60.478 142.065 62.9106 143.692 64.3095C147.36 67.4631 149.576 72.8621 149.81 79.0966C150.031 85.1533 148.505 91.3964 147.051 97.4159C146.543 99.4905 147.811 101.579 149.885 102.087C149.999 102.104 150.114 102.121 150.229 102.138C152.178 102.432 154.085 101.194 154.556 99.231C156.148 92.6848 157.791 85.9311 157.556 78.7967C157.257 70.4011 154.056 62.9764 148.761 58.424L148.739 58.4402Z" fill="#F45727"/>
<path d="M180.22 81.5849C178.618 69.512 173.38 58.6123 168.491 49.5449C159.352 32.6209 150.604 21.4076 140.078 13.1729C126.389 2.44743 109.523 -2.10749 94.9625 0.998954C78.8469 4.43827 64.51 17.2197 56.609 35.1556C49.5705 51.1289 48.1591 68.6734 47.6792 85.224C47.0612 106.584 48.0728 133.216 60.4484 154.734C59.8776 155.02 59.2953 155.382 58.7455 155.788C54.674 158.812 51.6601 165.066 54.0903 170.732C57.6866 179.037 67.558 181.756 72.8688 183.221L90.8116 188.154C90.842 188.471 90.8943 188.772 91.004 189.082C92.2745 192.715 91.7659 197 89.6071 200.821C87.4293 204.638 84.0222 207.274 80.2524 208.036C77.8953 208.502 75.2442 208.455 72.4374 208.403C67.1572 208.293 61.1745 208.174 56.2987 211.996C52.6469 214.829 50.9123 218.948 49.3863 222.591C48.1418 225.532 46.9777 228.329 45.0107 229.969C40.4904 233.767 32.4864 230.977 29.2523 229.61C20.7845 226.007 12.9897 220.53 6.71357 213.796C5.24957 212.226 2.81736 212.153 1.2509 213.599C-0.31556 215.045 -0.391826 217.498 1.05306 219.065C8.05023 226.592 16.7639 232.715 26.2235 236.741C29.3267 238.069 32.3241 238.931 35.1145 239.352C41.0775 240.25 46.198 239.085 50.0001 235.903C53.3815 233.049 55.052 229.096 56.5166 225.601C57.7946 222.566 59.0056 219.718 61.0462 218.108C63.7686 215.996 67.7261 216.064 72.2847 216.164C75.3841 216.22 78.5789 216.291 81.7819 215.658C87.7473 214.465 93.0619 210.454 96.3345 204.689C98.9143 200.15 99.8907 195.095 99.2002 190.336C100.016 190.498 100.827 190.699 101.648 190.822C106.159 191.502 110.659 191.339 114.848 189.095C119.163 186.792 121.944 181.559 121.632 176.369C121.516 174.415 120.942 172.647 119.991 171.174C121.466 170.203 122.98 169.238 124.496 168.254C138.242 159.393 153.826 149.361 163.732 136.284C176.587 119.329 182.595 99.4259 180.227 81.6642L180.22 81.5849ZM157.566 131.542C148.47 143.528 134.158 152.774 120.304 161.697C117.859 163.265 115.475 164.822 113.134 166.347C112.461 166.793 111.956 167.421 111.674 168.122C111.182 168.537 110.771 169.061 110.536 169.711C109.766 171.707 110.758 173.949 112.753 174.718C113.011 174.816 113.804 175.131 113.907 176.789C114.038 178.901 112.811 181.337 111.194 182.208C107.198 184.344 101.847 183.147 96.236 181.598L74.9135 175.746C69.3027 174.197 63.1379 172.173 61.18 167.654C60.409 165.895 61.6925 163.213 63.3228 161.992C63.9826 161.505 64.3879 161.41 64.6746 161.453C64.8848 161.484 65.0233 161.603 65.1102 161.675C66.6012 162.936 68.7965 162.895 70.2472 161.569C71.6788 160.239 71.9117 158.045 70.7621 156.464C55.9162 135.903 54.75 107.703 55.4078 85.4299C55.8681 69.6586 57.1824 53.0186 63.6867 38.2556C70.5836 22.5738 82.8874 11.481 96.58 8.55667C108.92 5.91756 123.407 9.9185 135.31 19.2603C144.942 26.8128 153.078 37.2886 161.684 53.213C166.255 61.6654 171.105 71.7636 172.561 82.6019C174.665 98.3488 169.203 116.183 157.569 131.522L157.566 131.542Z" fill="black"/>
</svg>
